# xmcd
#
# Track frame offsets:
#	150
#	18374
#	36298
#	50911
#	66753
#	89354
#	106982
#	124655
#	142509
#	164248
#	185995
#	206119
#	236887
#
# Disc length: 3535 seconds
# Revision: 4
# Processed by: cddbd v1.5.2PL0 Copyright (c) Steve Scherf et al.
# Submitted via: dBpowerAMP V12.0
#
DISCID=c30dcd0d
DTITLE=Ayo - Joyful
DYEAR=2006
DGENRE=Pop
TTITLE0=Down on My Knees
TTITLE1=Without You
TTITLE2=Letter by Letter
TTITLE3=How Many Times?
TTITLE4=And It's Supposed to Be Love
TTITLE5=Watching You
TTITLE6=Only You
TTITLE7=Help Is Coming
TTITLE8=These Days
TTITLE9=Life Is Real
TTITLE10=What Is Love?
TTITLE11=Neva Been
TTITLE12=DATA
EXTD=
EXTT0=
EXTT1=
EXTT2=
EXTT3=
EXTT4=
EXTT5=
EXTT6=
EXTT7=
EXTT8=
EXTT9=
EXTT10=
EXTT11=
EXTT12=
PLAYORDER=
